#!OML:ASF G:\JayActor3\Patient Classification 1\Patient 1\Session 6\male.ASF
:FULLY-SPECIFIED
:DEGREES
1402
root 8.59349 15.4833 -3.15668 2.82284 -35.7926 0.888367
lowerback 24.1301 4.72837 9.59981
upperback 8.9018 8.15796 4.59837
thorax -2.80781 3.97164 -2.45296
lowerneck -6.12818 -0.939512 0.812312
upperneck 15.2224 2.34192 -26.1914
head 5.95066 -0.608586 -8.63974
rclavicle -6.52014e-014 -6.36111e-015
rhumerus 10.7182 -4.35616 -74.2863
rradius 89.1791
rwrist -83.1982
rhand -25.0134 1.3529
rfingers 7.12502
rthumb 1.49867 -28.6216
lclavicle -6.52014e-014 -6.36111e-015
lhumerus -55.68 -18.537 98.1462
lradius 49.3646
lwrist 29.941
lhand -8.7481 2.49465
lfingers 7.12502
lthumb 17.1889 31.7544
rfemur -33.1697 -24.7801 15.6623
rtibia 59.7235
rfoot -27.9041 -13.1184
rtoes 0.988619
lfemur -34.2623 10.8481 -20.7731
ltibia 49.382
lfoot -16.6305 -0.482803
ltoes -2.82024
1403
root 8.57868 15.5014 -3.13863 2.68808 -35.8937 0.833762
lowerback 23.9158 4.75914 9.49254
upperback 8.81035 8.16223 4.54301
thorax -2.81167 3.97421 -2.44164
lowerneck -6.10683 -0.937354 0.808851
upperneck 15.2257 2.34594 -26.2058
head 5.94845 -0.608194 -8.64419
rclavicle 4.45278e-014 -9.54166e-015
rhumerus 10.5919 -4.15676 -74.3072
rradius 89.4199
rwrist -83.3414
rhand -24.962 0.971188
rfingers 7.12502
rthumb 1.54828 -29.0029
lclavicle 4.45278e-014 -9.54166e-015
lhumerus -55.7203 -18.5248 98.1022
lradius 49.251
lwrist 29.8774
lhand -8.76426 2.49154
lfingers 7.12502
lthumb 17.1733 31.7526
rfemur -32.6609 -24.5822 15.5995
rtibia 59.3523
rfoot -27.8959 -13.1584
rtoes 1.06085
lfemur -33.7569 10.9361 -20.6571
ltibia 49.0419
lfoot -16.6192 -0.476862
ltoes -2.84503
1404
root 8.56398 15.5191 -3.12056 2.55692 -35.9941 0.785735
lowerback 23.6941 4.79005 9.38312
upperback 8.71823 8.16587 4.48734
thorax -2.81255 3.97666 -2.4285
lowerneck -6.08999 -0.937776 0.810869
upperneck 15.2377 2.34896 -26.2288
head 5.94976 -0.609506 -8.6535
rclavicle 1.22451e-013 3.18055e-015
rhumerus 10.4669 -3.97022 -74.3324
rradius 89.6728
rwrist -83.4915
rhand -24.9603 0.824895
rfingers 7.12502
rthumb 1.5499 -29.1492
lclavicle 1.22451e-013 3.18055e-015
lhumerus -55.7599 -18.5128 98.0607
lradius 49.1371
lwrist 29.8241
lhand -8.77312 2.48292
lfingers 7.12502
lthumb 17.1648 31.7448
rfemur -32.1652 -24.3882 15.5362
rtibia 58.9847
rfoot -27.8877 -13.1949
rtoes 1.1404
lfemur -33.2609 11.0145 -20.5482
ltibia 48.7021
lfoot -16.6054 -0.462601
ltoes -2.87764
1405
root 8.54935 15.5368 -3.10263 2.42874 -36.0928 0.740698
lowerback 23.4671 4.82041 9.27325
upperback 8.62745 8.16846 4.43399
thorax -2.80941 3.97879 -2.41164
lowerneck -6.06991 -0.93743 0.810991
upperneck 15.2477 2.35314 -26.2558
head 5.95005 -0.610238 -8.66373
rclavicle 6.36111e-014 -3.18055e-014
rhumerus 10.3472 -3.8047 -74.3642
rradius 89.9247
rwrist -83.6032
rhand -24.941 0.766472
rfingers 7.12502
rthumb 1.56851 -29.2075
lclavicle 6.36111e-014 -3.18055e-014
lhumerus -55.7936 -18.4935 98.0202
lradius 49.0203
lwrist 29.7729
lhand -8.79212 2.47463
lfingers 7.12502
lthumb 17.1465 31.7381
rfemur -31.6778 -24.1937 15.4742
rtibia 58.6185
rfoot -27.8798 -13.2313
rtoes 1.23068
lfemur -32.7703 11.0742 -20.4408
ltibia 48.3612
lfoot -16.5893 -0.438134
ltoes -2.88872
1406
root 8.53491 15.5541 -3.08476 2.29826 -36.187 0.688641
lowerback 23.2465 4.84657 9.17871
upperback 8.54134 8.16936 4.38275
thorax -2.80195 3.98048 -2.40043
lowerneck -6.04455 -0.935151 0.809391
upperneck 15.2499 2.35775 -26.2792
head 5.94697 -0.609613 -8.67174
rclavicle -2.70347e-014 -3.81667e-014
rhumerus 10.2323 -3.66442 -74.4047
rradius 90.1744
rwrist -83.6691
rhand -24.8712 0.709793
rfingers 7.12502
rthumb 1.63592 -29.2637
lclavicle -2.70347e-014 -3.81667e-014
lhumerus -55.8159 -18.4726 97.9787
lradius 48.8976
lwrist 29.724
lhand -8.84706 2.47472
lfingers 7.12502
lthumb 17.0937 31.7427
rfemur -31.1818 -23.9995 15.4161
rtibia 58.2492
rfoot -27.8748 -13.2625
rtoes 1.32947
lfemur -32.2739 11.1175 -20.3255
ltibia 48.0208
lfoot -16.5738 -0.400169
ltoes -2.91289
1407
root 8.52039 15.5714 -3.06714 2.15954 -36.2769 0.625995
lowerback 23.0426 4.86894 9.09909
upperback 8.46105 8.16999 4.33621
thorax -2.79437 3.98207 -2.3932
lowerneck -6.01272 -0.931543 0.80692
upperneck 15.2439 2.3622 -26.3035
head 5.94006 -0.608016 -8.67929
rclavicle -1.59028e-015 -3.18055e-014
rhumerus 10.1222 -3.54605 -74.4505
rradius 90.4158
rwrist -83.6792
rhand -24.7494 0.627892
rfingers 7.12502
rthumb 1.75356 -29.3446
lclavicle -1.59028e-015 -3.18055e-014
lhumerus -55.829 -18.4577 97.9428
lradius 48.7716
lwrist 29.6888
lhand -8.90808 2.47964
lfingers 7.12502
lthumb 17.0349 31.7527
rfemur -30.665 -23.8003 15.3627
rtibia 57.8738
rfoot -27.8724 -13.2926
rtoes 1.44243
lfemur -31.7598 11.1443 -20.1955
ltibia 47.678
lfoot -16.56 -0.353822
ltoes -2.92418
1408
root 8.50591 15.5887 -3.04971 2.01108 -36.3616 0.544351
lowerback 22.8651 4.88517 9.04477
upperback 8.38629 8.17037 4.29462
thorax -2.79042 3.98344 -2.39626
lowerneck -5.97849 -0.927329 0.805693
upperneck 15.2354 2.36694 -26.3297
head 5.93196 -0.605908 -8.68755
rclavicle -5.56597e-014 6.36111e-015
rhumerus 10.0141 -3.44682 -74.5018
rradius 90.6507
rwrist -83.6412
rhand -24.5776 0.513874
rfingers 7.12502
rthumb 1.9195 -29.4572
lclavicle -5.56597e-014 6.36111e-015
lhumerus -55.8334 -18.4401 97.905
lradius 48.6423
lwrist 29.6578
lhand -8.97695 2.49817
lfingers 7.12502
lthumb 16.9686 31.777
rfemur -30.1167 -23.5965 15.3181
rtibia 57.4884
rfoot -27.8736 -13.3228
rtoes 1.56441
lfemur -31.2211 11.1661 -20.043
ltibia 47.3329
lfoot -16.5485 -0.313867
ltoes -2.90688
1409
root 8.49112 15.6058 -3.03248 1.84699 -36.4433 0.457986
lowerback 22.7116 4.89795 8.99826
upperback 8.31613 8.17001 4.25518
thorax -2.79233 3.98409 -2.40302
lowerneck -5.9458 -0.924292 0.811046
upperneck 15.2297 2.37078 -26.3618
head 5.92497 -0.604548 -8.69953
rclavicle -6.36111e-015 -1.59028e-014
rhumerus 9.9047 -3.35137 -74.5566
rradius 90.8837
rwrist -83.5887
rhand -24.3942 0.436907
rfingers 7.12502
rthumb 2.09664 -29.5325
lclavicle -6.36111e-015 -1.59028e-014
lhumerus -55.8347 -18.4292 97.8662
lradius 48.5141
lwrist 29.6348
lhand -9.06659 2.52514
lfingers 7.12502
lthumb 16.8823 31.8113
rfemur -29.5419 -23.3862 15.272
rtibia 57.0942
rfoot -27.8757 -13.3583
rtoes 1.69264
lfemur -30.6588 11.1916 -19.8821
ltibia 46.983
lfoot -16.5383 -0.278888
ltoes -2.89869
1410
root 8.47636 15.6229 -3.01525 1.67871 -36.5255 0.355445
lowerback 22.5752 4.90556 8.96747
upperback 8.251 8.16755 4.22121
thorax -2.79563 3.98363 -2.41319
lowerneck -5.91596 -0.920798 0.814959
upperneck 15.2267 2.37675 -26.3985
head 5.91978 -0.602943 -8.71305
rclavicle 8.74653e-015 2.54444e-014
rhumerus 9.79795 -3.24331 -74.61
rradius 91.1176
rwrist -83.5513
rhand -24.2162 0.385834
rfingers 7.12502
rthumb 2.26858 -29.5818
lclavicle 8.74653e-015 2.54444e-014
lhumerus -55.8348 -18.4208 97.8293
lradius 48.3949
lwrist 29.6292
lhand -9.10951 2.54198
lfingers 7.12502
lthumb 16.841 31.8317
rfemur -28.9457 -23.1685 15.2367
rtibia 56.6905
rfoot -27.8765 -13.4021
rtoes 1.82325
lfemur -30.0785 11.2259 -19.704
ltibia 46.6289
lfoot -16.5269 -0.256173
ltoes -2.86881
1411
root 8.46192 15.6402 -2.99795 1.51209 -36.6087 0.246179
lowerback 22.4455 4.90934 8.94852
upperback 8.18838 8.16296 4.18893
thorax -2.79802 3.98222 -2.42787
lowerneck -5.89117 -0.917063 0.815757
upperneck 15.2283 2.38517 -26.438
head 5.91746 -0.601248 -8.72731
rclavicle 2.3059e-014 -1.43125e-014
rhumerus 9.69203 -3.12137 -74.661
rradius 91.3599
rwrist -83.5493
rhand -24.0638 0.347866
rfingers 7.12502
rthumb 2.41571 -29.6182
lclavicle 2.3059e-014 -1.43125e-014
lhumerus -55.8322 -18.4108 97.789
lradius 48.2848
lwrist 29.6291
lhand -9.16995 2.57075
lfingers 7.12502
lthumb 16.7828 31.8654
rfemur -28.346 -22.9453 15.2083
rtibia 56.2816
rfoot -27.8729 -13.4578
rtoes 1.95133
lfemur -29.4929 11.268 -19.5201
ltibia 46.2699
lfoot -16.5123 -0.245946
ltoes -2.81155
